<svg width="12" height="16" viewBox="0 0 12 16" fill="none" xmlns="http://www.w3.org/2000/svg">
<path d="M11.2448 14.498C11.4347 14.4983 11.6175 14.5707 11.7561 14.7005C11.8948 14.8303 11.979 15.0079 11.9918 15.1974C12.0047 15.3869 11.9451 15.5742 11.8252 15.7215C11.7053 15.8688 11.5339 15.9651 11.3458 15.991L11.2448 15.998H0.749771C0.559748 15.9979 0.37683 15.9258 0.23798 15.796C0.0991288 15.6663 0.0146974 15.4887 0.00174538 15.2991C-0.0112066 15.1095 0.0482868 14.9221 0.168204 14.7747C0.288121 14.6273 0.459521 14.5309 0.647771 14.505L0.749771 14.498H11.2448ZM6.00377 0C6.18501 7.6429e-06 6.36011 0.0656426 6.4967 0.184767C6.63329 0.303891 6.72212 0.468446 6.74677 0.648L6.75377 0.75L6.75277 10.943L9.71877 7.973C9.84569 7.84557 10.0142 7.76799 10.1935 7.75441C10.3729 7.74083 10.5511 7.79214 10.6958 7.899L10.7798 7.971C10.9071 8.09805 10.9844 8.2666 10.9978 8.44593C11.0112 8.62527 10.9598 8.80345 10.8528 8.948L10.7808 9.032L6.53777 13.282L6.46777 13.345L6.37577 13.404L6.33977 13.425L6.24877 13.463L6.12877 13.493L6.05877 13.501L5.99877 13.503C5.94835 13.5029 5.89808 13.4975 5.84877 13.487L5.76677 13.464C5.6721 13.4332 5.58467 13.3836 5.50977 13.318L1.21977 9.033C1.08523 8.89934 1.00632 8.71968 0.998925 8.53018C0.991528 8.34068 1.05619 8.15542 1.1799 8.01168C1.30361 7.86794 1.47718 7.77641 1.66567 7.7555C1.85416 7.73459 2.04357 7.78587 2.19577 7.899L2.27977 7.972L5.25277 10.939V0.75C5.25277 0.551088 5.33179 0.360322 5.47244 0.21967C5.61309 0.0790175 5.80486 0 6.00377 0Z" fill="black"/>
</svg>
